IKResults
version=1
nRows=7
nColumns=63
inDegrees=yes

Units are S.I. units (second, meters, Newtons, ...)
If the header above contains a line with 'inDegrees', this indicates whether rotational values are in degrees (yes) or radians (no).

endheader
time	pelvis_tilt	pelvis_list	pelvis_rotation	pelvis_tx	pelvis_ty	pelvis_tz	hip_flexion_r	hip_adduction_r	hip_rotation_r	knee_angle_r	knee_angle_r_beta	ankle_angle_r	subtalar_angle_r	mtp_angle_r	hip_flexion_l	hip_adduction_l	hip_rotation_l	knee_angle_l	knee_angle_l_beta	ankle_angle_l	subtalar_angle_l	mtp_angle_l	L5_S1_Flex_Ext	L5_S1_Lat_Bending	L5_S1_axial_rotation	L4_L5_Flex_Ext	L4_L5_Lat_Bending	L4_L5_axial_rotation	L3_L4_Flex_Ext	L3_L4_Lat_Bending	L3_L4_axial_rotation	L2_L3_Flex_Ext	L2_L3_Lat_Bending	L2_L3_axial_rotation	L1_L2_Flex_Ext	L1_L2_Lat_Bending	L1_L2_axial_rotation	L1_T12_Flex_Ext	L1_T12_Lat_Bending	L1_T12_axial_rotation	Abs_r3	Abs_r2	Abs_r1	Abs_t1	Abs_t2	neck_flexion	neck_bending	neck_rotation	arm_flex_r	arm_add_r	arm_rot_r	elbow_flex_r	pro_sup_r	wrist_flex_r	wrist_dev_r	arm_flex_l	arm_add_l	arm_rot_l	elbow_flex_l	pro_sup_l	wrist_flex_l	wrist_dev_l
      6.03333333	      5.99524290	    -18.39570542	    -55.40246703	     -0.69310213	      0.60221284	     -0.34377981	     -0.30581817	      2.03303921	     -0.35002578	     59.95763108	      1.04645807	      0.00000000	      0.00000000	      0.00000000	     -3.56691569	    -33.37785276	      8.08386591	    119.95553638	      2.09361907	     19.28840601	    -19.88204090	      0.00000000	     -6.91423463	      0.29288455	      1.00860365	    -12.84042513	      0.38953645	      1.07164138	    -11.35939607	      0.71211950	      1.07164138	     -7.90227876	      0.71211950	      0.88252819	     -6.42055828	      0.59725018	      0.81949046	     -3.95079367	      0.45367817	      0.75645274	    -49.38768653	      3.31316863	      5.60955091	      0.00000000	      0.00000000	     28.36043990	     -0.34115103	      5.55313826	     23.98159355	      0.73880759	    -24.87484119	     21.54601044	     89.99559364	      0.00000000	      0.00000000	     27.09571424	     -8.22952286	     16.16530607	     29.98788354	     89.99559364	      0.00000000	      0.00000000
      6.06666667	      6.10324431	    -18.42993190	    -55.14339770	     -0.69335063	      0.60232865	     -0.34386669	     -0.43167502	      2.05942667	     -0.35115175	     59.95802702	      1.04646498	      0.00000000	      0.00000000	      0.00000000	     -3.44010350	    -33.39262682	      8.36483686	    119.95606704	      2.09362833	     19.33535783	    -19.88259163	      0.00000000	     -6.92683424	      0.29171384	      1.01524041	    -12.86382387	      0.38797941	      1.07869293	    -11.38009598	      0.70927303	      1.07869293	     -7.91667886	      0.70927303	      0.88833536	     -6.43225828	      0.59486286	      0.82488283	     -3.95799309	      0.45186474	      0.76143031	    -49.47768432	      3.29992531	      5.64646258	      0.00000000	      0.00000000	     28.35932060	     -0.78837151	      4.30766542	     23.75700573	      0.55104868	    -23.58685102	     21.71490882	     89.99559364	      0.00000000	      0.00000000	     27.45721614	     -8.45480707	     17.82207649	     29.81240928	     89.99559364	      0.00000000	      0.00000000
      6.10000000	      6.13486715	    -18.45401194	    -55.13154732	     -0.69344937	      0.60227854	     -0.34381173	     -0.50342481	      2.07671861	     -0.35231839	     59.95803588	      1.04646514	      0.00000000	      0.00000000	      0.00000000	     -3.49815313	    -33.45139821	      8.31374141	    119.95619455	      2.09363055	     19.41439933	    -19.88234441	      0.00000000	     -6.92894350	      0.28784452	      1.01840404	    -12.86774098	      0.38283321	      1.08205429	    -11.38356128	      0.69986517	      1.08205429	     -7.91908953	      0.69986517	      0.89110354	     -6.43421694	      0.58697255	      0.82745328	     -3.95919832	      0.44587116	      0.76380303	    -49.49275054	      3.25615480	      5.66405775	      0.00000000	      0.00000000	     28.34963371	     -0.75145151	      4.28732629	     23.67000110	      0.56452595	    -23.56348570	     21.72075122	     89.99559364	      0.00000000	      0.00000000	     27.43798931	     -8.49990454	     17.84255225	     29.80384991	     89.99559364	      0.00000000	      0.00000000
      6.13333333	      6.17116346	    -18.49245760	    -55.11486017	     -0.69359031	      0.60225823	     -0.34376559	     -0.56563637	      2.09162643	     -0.35332604	     59.95804466	      1.04646529	      0.00000000	      0.00000000	      0.00000000	     -3.55971900	    -33.51382851	      8.28872502	    119.95649346	      2.09363577	     19.52267083	    -19.88224798	      0.00000000	     -6.93471523	      0.28481504	      1.02457695	    -12.87845965	      0.37880401	      1.08861301	    -11.39304365	      0.69249929	      1.08861301	     -7.92568604	      0.69249929	      0.89650484	     -6.43957656	      0.58079483	      0.83246878	     -3.96249628	      0.44117850	      0.76843272	    -49.53397741	      3.22188472	      5.69838965	      0.00000000	      0.00000000	     28.34532182	     -0.69048652	      4.23933858	     23.56962559	      0.56508299	    -23.53774539	     21.73934733	     89.99559364	      0.00000000	      0.00000000	     27.43131946	     -8.53763153	     17.87791039	     29.79657481	     89.99559364	      0.00000000	      0.00000000
      6.16666667	      6.33459931	    -18.78192832	    -54.81702409	     -0.69362514	      0.60265378	     -0.34391568	     -0.97962076	      2.20790461	     -0.35990170	     59.95824445	      1.04646878	      0.00000000	      0.00000000	      0.00000000	     -3.74894011	    -33.66528788	      8.55760045	    119.95624938	      2.09363151	     19.77577862	    -19.88257277	      0.00000000	     -6.98433931	      0.29794049	      1.04406473	    -12.97061653	      0.39626085	      1.10931877	    -11.47457105	      0.72441251	      1.10931877	     -7.98240140	      0.72441251	      0.91355664	     -6.48565748	      0.60756025	      0.84830259	     -3.99085148	      0.46150982	      0.78304855	    -49.88843724	      3.37036240	      5.80677480	      0.00000000	      0.00000000	     28.34705588	     -0.44965686	      3.31758351	     23.27411386	      0.34460202	    -22.74928084	     22.20004874	     89.99559364	      0.00000000	      0.00000000	     27.82938028	     -8.59252437	     19.10928200	     29.52029379	     89.99559364	      0.00000000	      0.00000000
      6.20000000	      6.36632680	    -18.81085251	    -54.83162392	     -0.69369674	      0.60261957	     -0.34376002	     -1.04387265	      2.21438001	     -0.36081610	     59.95825260	      1.04646892	      0.00000000	      0.00000000	      0.00000000	     -3.81879593	    -33.68914180	      8.55617674	    119.95677443	      2.09364067	     19.86050759	    -19.88323729	      0.00000000	     -6.98648122	      0.29357945	      1.05343209	    -12.97459428	      0.39046067	      1.11927159	    -11.47809000	      0.71380907	      1.11927159	     -7.98484939	      0.71380907	      0.92175307	     -6.48764646	      0.59866721	      0.85591357	     -3.99207537	      0.45475456	      0.79007406	    -49.90373672	      3.32102943	      5.85887323	      0.00000000	      0.00000000	     28.34215156	     -0.41854489	      3.29966149	     23.17548525	      0.33570440	    -22.72750628	     22.15907812	     89.99559364	      0.00000000	      0.00000000	     27.78266377	     -8.63271871	     19.15345453	     29.50462804	     89.99559364	      0.00000000	      0.00000000
      6.23333333	      6.40835138	    -18.85744918	    -54.84871561	     -0.69377808	      0.60260369	     -0.34358285	     -1.10580993	      2.23618069	     -0.36191631	     59.95826059	      1.04646906	      0.00000000	      0.00000000	      0.00000000	     -3.91381334	    -33.70488217	      8.57535951	    119.95740962	      2.09365176	     19.95948777	    -19.88363026	      0.00000000	     -6.99147136	      0.28943485	      1.06656968	    -12.98386145	      0.38494835	      1.13323029	    -11.48628829	      0.70373189	      1.13323029	     -7.99055261	      0.70373189	      0.93324847	     -6.49228030	      0.59021554	      0.86658787	     -3.99492673	      0.44833458	      0.79992726	    -49.93938074	      3.27414487	      5.93194060	      0.00000000	      0.00000000	     28.33916680	     -0.34338356	      3.26630335	     23.07045734	      0.31328048	    -22.70801333	     22.12778651	     89.99559364	      0.00000000	      0.00000000	     27.74754582	     -8.66558244	     19.20962758	     29.48860947	     89.99559364	      0.00000000	      0.00000000
